# xmcd
#
# Track frame offsets: 
#        150
#        17752
#        35188
#        49893
#        67565
#        81051
#        95512
#        110856
#        128681
#        145400
#        161448
#
# Disc length: 2380 seconds
#
# Revision: 2
# Processed by: cddbd v1.5.2PL0 Copyright (c) Steve Scherf et al.
# Submitted via: ExactAudioCopy v0.99pb5
#
DISCID=91094a0b
DTITLE=Américo - A morir
DYEAR=2008
DGENRE=Cumbia
TTITLE0=Te vas
TTITLE1=Entre el odio y el amor
TTITLE2=Que levante la mano
TTITLE3=A llorar a otra parte
TTITLE4=Me enamoré
TTITLE5=No me mientras
TTITLE6=Me olvidé de tu amor
TTITLE7=Tendría que llorar por ti
TTITLE8=Otra noche sin ti
TTITLE9=Qué será de mí
TTITLE10=Tu nombre y el mío
EXTD=YEAR: 2008
EXTT0=
EXTT1=
EXTT2=
EXTT3=
EXTT4=
EXTT5=
EXTT6=
EXTT7=
EXTT8=
EXTT9=
EXTT10=
PLAYORDER=
